<?xml version="1.0" standalone="no"?>
<!DOCTYPE svg PUBLIC "-//W3C//DTD SVG 20010904//EN"
 "http://www.w3.org/TR/2001/REC-SVG-20010904/DTD/svg10.dtd">
<svg version="1.0" xmlns="http://www.w3.org/2000/svg"
 width="245.760000pt" height="245.760000pt" viewBox="0 0 245.760000 245.760000"
 preserveAspectRatio="xMidYMid meet">
<metadata>
Created by potrace 1.16, written by Peter Selinger 2001-2019
</metadata>
<g transform="translate(0.000000,245.760000) scale(0.024000,-0.024000)"
fill="#3ECFA0" stroke="none">
<path d="M5393 8186 c-10 -12 -142 -270 -293 -572 -151 -302 -277 -551 -280
-554 -3 -3 -30 -57 -60 -120 -30 -63 -65 -131 -77 -150 -13 -19 -23 -43 -23
-52 0 -17 -68 -18 -1411 -18 -1298 0 -1414 -1 -1446 -17 -68 -32 -78 -123 -19
-167 27 -21 29 -21 1397 -24 753 -1 1369 -6 1369 -10 0 -4 -4 -12 -9 -18 -5
-5 -69 -128 -141 -274 -72 -146 -136 -274 -143 -285 -33 -61 -127 -255 -127
-264 0 -6 -9 -15 -19 -21 -13 -7 -566 -10 -1716 -10 -1682 0 -1696 0 -1735
-20 l-40 -20 0 -65 c0 -61 1 -65 30 -80 26 -13 220 -15 1685 -15 1455 0 1656
-2 1661 -15 3 -8 -38 -101 -91 -207 -54 -106 -150 -296 -214 -423 l-116 -230
-1333 -5 -1334 -5 -24 -28 c-53 -61 -43 -120 26 -154 l44 -23 1263 0 c704 0
1263 -4 1263 -9 0 -4 -8 -19 -18 -32 -10 -13 -48 -82 -83 -154 -36 -71 -71
-139 -77 -150 -6 -11 -54 -109 -107 -217 -53 -109 -101 -200 -106 -204 -6 -3
-247 -5 -537 -5 -290 1 -552 -3 -582 -8 -65 -10 -100 -44 -100 -96 0 -48 55
-105 101 -105 19 0 247 0 507 -1 260 0 479 -2 486 -5 16 -6 10 -38 -14 -74 -9
-14 -42 -79 -73 -145 -32 -66 -62 -127 -67 -135 -18 -30 -270 -538 -270 -545
0 -4 -8 -19 -18 -33 -10 -15 -27 -47 -37 -72 -11 -25 -22 -47 -26 -50 -3 -3
-20 -36 -38 -75 -17 -38 -36 -77 -41 -85 -19 -30 -40 -84 -37 -94 3 -8 129
-12 403 -13 442 -2 501 4 605 59 75 39 151 108 202 181 34 51 431 823 588
1147 23 47 50 97 60 111 l19 26 862 2 c574 1 883 5 925 12 78 14 141 54 193
123 20 28 68 110 105 181 251 480 252 480 243 559 -6 52 -36 97 -91 137 -83
60 -65 59 -934 59 -436 0 -793 3 -793 6 0 3 7 18 15 32 13 25 61 122 170 342
26 52 55 111 64 130 10 19 73 145 141 280 67 135 131 261 141 280 29 56 114
231 134 275 10 22 25 47 32 57 8 9 15 22 17 30 1 7 9 27 17 43 9 17 57 113
108 215 50 102 102 205 116 230 13 25 95 188 182 362 87 175 160 317 163 317
3 1 18 -27 34 -62 28 -61 131 -277 207 -432 21 -44 66 -138 100 -210 34 -71
83 -175 109 -230 26 -55 60 -127 75 -160 42 -92 178 -378 287 -605 105 -219
118 -246 118 -254 0 -5 8 -20 18 -34 10 -15 29 -52 42 -82 12 -30 60 -131 105
-225 120 -247 215 -447 215 -453 0 -3 24 -56 54 -117 30 -60 77 -159 105 -220
83 -176 87 -184 149 -315 33 -69 88 -186 122 -260 34 -74 88 -189 119 -255 32
-66 71 -149 86 -185 16 -36 37 -77 47 -92 10 -14 18 -31 18 -37 0 -5 15 -41
33 -78 49 -98 209 -435 252 -528 48 -105 154 -234 232 -281 128 -79 185 -86
673 -79 206 3 376 7 378 10 2 2 -3 16 -12 32 -8 15 -36 73 -62 128 -107 231
-182 387 -313 658 -50 103 -91 190 -91 192 0 4 -39 88 -160 340 -61 129 -140
295 -172 365 -28 63 -46 100 -139 295 -24 50 -44 92 -45 95 0 3 -22 50 -48
105 -27 55 -62 129 -78 165 -17 36 -68 142 -113 235 -46 94 -106 220 -133 281
-28 61 -85 182 -127 270 -142 297 -155 324 -155 330 0 3 -26 61 -59 128 -132
272 -196 407 -246 516 -29 63 -93 198 -143 300 -49 102 -103 214 -120 250 -16
36 -73 155 -127 265 -195 402 -230 473 -302 625 -40 85 -81 172 -91 192 -9 21
-20 38 -24 38 -5 0 -8 5 -8 11 0 11 -61 142 -128 277 l-36 72 -632 0 -633 0
-18 -24z"/>
</g>
</svg>
